<svg xmlns="http://www.w3.org/2000/svg" viewBox="0 0 64 64">
	<title>5 Minute Grove</title>
	<rect width="64" height="64" rx="16" fill="#315e4c"/>
	<circle cx="32" cy="32" r="23" fill="#fbfaf5"/>
	<path d="M39.5 18H25l-1.7 15.2c2.5-1.6 5.2-2.4 8-2.4 5.2 0 8.7 2.8 8.7 7.7 0 5.4-4.3 9.4-10.8 9.4-4.4 0-8.2-1.7-10.6-4.4l4-4.2c1.8 1.8 3.8 2.8 6.3 2.8 2.8 0 4.7-1.4 4.7-3.7 0-2.2-1.7-3.3-4.3-3.3-2 0-3.8.6-5.8 1.8l-5.4-2.2L20.6 12h18.9z" fill="#315e4c"/>
	<path d="M45 16v10M40 21h10" stroke="#d69a32" stroke-width="4" stroke-linecap="round"/>
</svg>
